<svg width="13" height="13" viewBox="0 0 13 13" fill="none" xmlns="http://www.w3.org/2000/svg">
<path d="M10.8174 4.4588H7.52181V1.16317C7.52181 0.523425 6.99838 0 6.35864 0H5.60258C4.96284 0 4.43942 0.523425 4.43942 1.16317V4.4588H1.16317C0.523425 4.4588 0 4.98223 0 5.62197V6.37803C0 7.01777 0.523425 7.5412 1.16317 7.5412H4.4588V10.8368C4.4588 11.4766 4.98223 12 5.62197 12H6.37803C7.01777 12 7.5412 11.4766 7.5412 10.8368V7.5412H10.8368C11.4766 7.5412 12 7.01777 12 6.37803V5.62197C11.9806 4.98223 11.4572 4.4588 10.8174 4.4588Z" fill="#4858A4"/>
</svg>
