<svg width="16" height="16" viewBox="0 0 16 16" fill="none" xmlns="http://www.w3.org/2000/svg">
<path d="M11.2173 8.01435L14.6493 4.56855C15.3071 3.90811 15.3071 2.81694 14.6493 2.15649L13.8485 1.35247C13.1907 0.692028 12.1039 0.692028 11.4461 1.35247L8.01409 4.79827L4.58209 1.35247C3.92429 0.692028 2.83749 0.692028 2.17969 1.35247L1.35028 2.12778C0.692483 2.78822 0.692483 3.87939 1.35028 4.53984L4.78229 7.98564L1.35028 11.4314C0.692483 12.0919 0.692483 13.1831 1.35028 13.8435L2.15109 14.6475C2.80889 15.308 3.89569 15.308 4.55349 14.6475L7.98549 11.2017L11.4175 14.6475C12.0753 15.308 13.1621 15.308 13.8199 14.6475L14.6207 13.8435C15.2785 13.1831 15.2785 12.0919 14.6207 11.4314L11.2173 8.01435Z" fill="#BDBDBD"/>
</svg>
