<svg width="13" height="21" viewBox="0 0 13 21" fill="none" xmlns="http://www.w3.org/2000/svg">
<path d="M0.352968 11.3194L10.2002 20.6645C10.428 20.8808 10.732 21 11.0562 21C11.3804 21 11.6844 20.8808 11.9121 20.6645L12.6373 19.9765C13.1092 19.5281 13.1092 18.7995 12.6373 18.3518L4.36835 10.5044L12.6465 2.6482C12.8742 2.43188 13 2.14352 13 1.83603C13 1.52821 12.8742 1.23984 12.6465 1.02336L11.9213 0.335485C11.6934 0.119169 11.3895 0 11.0653 0C10.7412 0 10.4371 0.119169 10.2094 0.335485L0.352968 9.68912C0.124674 9.90611 -0.000717163 10.1958 2.86102e-06 10.5038C-0.000717163 10.813 0.124674 11.1026 0.352968 11.3194Z" fill="#4858A4"/>
</svg>
