<svg width="13" height="21" viewBox="0 0 13 21" fill="none" xmlns="http://www.w3.org/2000/svg">
<path d="M12.647 11.3194L2.7998 20.6645C2.57204 20.8808 2.26801 21 1.94383 21C1.61965 21 1.31562 20.8808 1.08786 20.6645L0.36268 19.9765C-0.1092 19.5281 -0.1092 18.7995 0.36268 18.3518L8.63164 10.5044L0.353505 2.6482C0.125751 2.43188 0 2.14352 0 1.83603C0 1.52821 0.125751 1.23984 0.353505 1.02336L1.07869 0.335484C1.30662 0.119167 1.61047 0 1.93465 0C2.25884 0 2.56287 0.119167 2.79062 0.335484L12.647 9.68912C12.8753 9.90611 13.0007 10.1958 13 10.5038C13.0007 10.813 12.8753 11.1026 12.647 11.3194Z" fill="#7B61FF"/>
</svg>
