<svg width="21" height="21" viewBox="0 0 21 21" fill="none" xmlns="http://www.w3.org/2000/svg">
<path d="M15.9054 15.6137C14.5567 15.6125 13.4623 16.7047 13.4609 18.0535C13.4596 19.4022 14.5519 20.4966 15.9007 20.4979C17.2494 20.4992 18.3438 19.4069 18.3451 18.0582C18.3451 18.0574 18.3451 18.0566 18.3451 18.0559C18.3438 16.7086 17.2526 15.6164 15.9054 15.6137Z" fill="white"/>
<path d="M9.92261 17.9513C9.86525 16.6421 8.78482 15.6116 7.47437 15.6161C6.12675 15.6706 5.07843 16.8072 5.13289 18.1548C5.18514 19.4479 6.23701 20.4756 7.5309 20.4979H7.58977C8.9372 20.4389 9.98162 19.2987 9.92261 17.9513Z" fill="white"/>
<path d="M20.2368 3.9198C20.1784 3.90848 20.119 3.90273 20.0595 3.90264H5.19033L4.95484 2.32717C4.80811 1.28087 3.91314 0.502397 2.85658 0.502075H0.941982C0.42173 0.502075 0 0.923806 0 1.44406C0 1.96431 0.42173 2.38604 0.941982 2.38604H2.85893C2.9787 2.38517 3.08007 2.47435 3.09442 2.59329L4.54506 12.5359C4.74395 13.7993 5.83068 14.7313 7.10962 14.7354H16.9086C18.1399 14.7371 19.2022 13.8716 19.4496 12.6654L20.9827 5.02359C21.0815 4.51281 20.7476 4.01864 20.2368 3.9198Z" fill="white"/>
</svg>
