<svg width="23" height="16" viewBox="0 0 23 16" fill="none" xmlns="http://www.w3.org/2000/svg">
<path d="M2.39582 0H20.6041C21.9273 0 23 1.07264 23 2.39582V12.9375C23 14.2607 21.9273 15.3333 20.6041 15.3333H2.39582C1.07264 15.3334 0 14.2607 0 12.9375V2.39586C0 1.07264 1.07264 0 2.39582 0Z" fill="#009FE3"/>
<path d="M23 2.87494H0V6.70826H23V2.87494Z" fill="#122735"/>
<path d="M7.18799 10.5416H3.35467C3.09004 10.5416 2.87549 10.3271 2.87549 10.0624C2.87549 9.7978 3.09004 9.58325 3.35467 9.58325H7.18799C7.45262 9.58325 7.66717 9.7978 7.66717 10.0624C7.66717 10.3271 7.45262 10.5416 7.18799 10.5416Z" fill="#FAFAFA"/>
<path d="M10.0625 12.4583H3.35418C3.08955 12.4583 2.875 12.2438 2.875 11.9791C2.875 11.7145 3.08955 11.4999 3.35418 11.4999H10.0625C10.3271 11.4999 10.5417 11.7145 10.5417 11.9791C10.5417 12.2438 10.3271 12.4583 10.0625 12.4583Z" fill="#FAFAFA"/>
</svg>
