<svg width="20" height="20" viewBox="0 0 20 20" fill="none" xmlns="http://www.w3.org/2000/svg">
<path d="M19.3402 4.46187C19.2587 3.91742 18.9849 3.42016 18.5683 3.06024C18.1518 2.70032 17.62 2.50156 17.0695 2.5H2.93078C2.38027 2.50156 1.84854 2.70032 1.43198 3.06024C1.01541 3.42016 0.741595 3.91742 0.660156 4.46187L10.0002 10.5056L19.3402 4.46187Z" fill="black"/>
<path d="M10.3394 11.7751C10.2383 11.8405 10.1204 11.8753 10 11.8753C9.87959 11.8753 9.76174 11.8405 9.66062 11.7751L0.625 5.92885V15.1945C0.625662 15.8058 0.868788 16.3918 1.30103 16.8241C1.73328 17.2563 2.31934 17.4994 2.93062 17.5001H17.0694C17.6807 17.4994 18.2667 17.2563 18.699 16.8241C19.1312 16.3918 19.3743 15.8058 19.375 15.1945V5.92822L10.3394 11.7751Z" fill="black"/>
</svg>
