<svg width="15" height="15" viewBox="0 0 15 15" fill="none" xmlns="http://www.w3.org/2000/svg">
<path d="M14.0034 1.12943e-06H0.630432C0.39442 -0.000445018 0.178189 0.131317 0.07037 0.341154C-0.0389358 0.553816 -0.0197515 0.809904 0.119892 1.00413L5.01917 7.90584C5.0208 7.90822 5.02259 7.91045 5.02422 7.91283C5.20224 8.15316 5.2986 8.44434 5.29905 8.74341V14.3703C5.29801 14.5369 5.36344 14.6971 5.48078 14.8153C5.59826 14.9334 5.75798 15 5.92455 15C6.00916 14.9999 6.09304 14.983 6.17126 14.9505L8.92428 13.9008C9.17085 13.8254 9.33459 13.5927 9.33459 13.3125V8.74341C9.33503 8.44434 9.4314 8.15316 9.60926 7.91283C9.6109 7.91045 9.61268 7.90822 9.61432 7.90584L14.5137 1.00398C14.6534 0.809904 14.6726 0.553965 14.5633 0.341302C14.4556 0.131317 14.2392 -0.000445018 14.0034 1.12943e-06Z" fill="white"/>
</svg>
