<svg width="20" height="26" viewBox="0 0 20 26" fill="none" xmlns="http://www.w3.org/2000/svg">
<path d="M18.8788 5.38102C18.1346 3.91368 17.0335 2.65697 15.6766 1.72643C14.3197 0.795889 12.7507 0.221382 11.1138 0.0557233C10.3733 -0.0185744 9.62722 -0.0185744 8.88672 0.0557233C7.24983 0.22149 5.68084 0.795981 4.32393 1.72641C2.96702 2.65684 1.86571 3.91336 1.12118 5.38053C0.184447 7.25255 -0.177373 9.3599 0.0812894 11.4372C0.339952 13.5144 1.20753 15.4687 2.57474 17.0538L9.24182 25.1596C9.33389 25.2717 9.44964 25.3619 9.58073 25.4238C9.71183 25.4857 9.85502 25.5179 10 25.5179C10.145 25.5179 10.2882 25.4857 10.4193 25.4238C10.5504 25.3619 10.6661 25.2717 10.7582 25.1596L17.4253 17.0538C18.7925 15.4688 19.66 13.5146 19.9187 11.4374C20.1774 9.36024 19.8156 7.25296 18.8788 5.38102ZM10 13.7399C9.22354 13.7399 8.46451 13.5096 7.81889 13.0782C7.17328 12.6468 6.67009 12.0337 6.37295 11.3163C6.0758 10.599 5.99806 9.80961 6.14954 9.04805C6.30102 8.2865 6.67493 7.58697 7.22398 7.03792C7.77302 6.48888 8.47255 6.11497 9.2341 5.96349C9.99566 5.81201 10.785 5.88975 11.5024 6.18689C12.2198 6.48404 12.8329 6.98723 13.2643 7.63284C13.6957 8.27846 13.9259 9.03749 13.9259 9.81396C13.9247 10.8548 13.5107 11.8527 12.7747 12.5886C12.0387 13.3246 11.0409 13.7386 10 13.7399Z" fill="black"/>
</svg>
