<svg width="91" height="22" viewBox="0 0 91 22" fill="none" xmlns="http://www.w3.org/2000/svg">
<g clip-path="url(#clip0)">
<path d="M76.7496 21.776C85.3782 20.6081 91.6857 14.8125 90.8378 8.83111C89.99 2.84972 82.3078 -1.05237 73.6791 0.115537C65.0505 1.28345 58.743 7.0791 59.5909 13.0605C60.4388 19.0419 68.121 22.944 76.7496 21.776Z" fill="#FEDA48"/>
<path d="M10.1111 14.7545V17.2575H0V15.2815L5.66222 8.69464H0.134815V6.19165H9.84148V8.1677L4.17926 14.7545H10.1111Z" fill="white"/>
<path d="M22.3789 6.19165V17.2575H19.6826L14.6945 11.3294V17.2575H11.5938V6.19165H14.29L19.2782 12.1198V6.19165H22.3789Z" fill="white"/>
<path d="M32.221 15.0179H27.5025L26.5588 17.1257H23.3232L28.3114 6.05981H31.4121L36.4003 17.1257H33.0299L32.221 15.0179ZM31.2773 12.7784L29.7944 9.22149L28.3114 12.7784H31.2773Z" fill="white"/>
<path d="M36.5352 11.7246C36.5352 8.29948 39.2315 5.92822 42.7366 5.92822C44.7589 5.92822 46.5114 6.71864 47.59 8.03601L45.5677 9.88032C44.8937 9.0899 43.95 8.56295 42.8714 8.56295C40.984 8.56295 39.7707 9.88032 39.7707 11.7246C39.7707 13.5689 41.1189 14.8863 42.8714 14.8863C43.95 14.8863 44.8937 14.4911 45.5677 13.5689L47.59 15.4133C46.5114 16.7306 44.7589 17.521 42.7366 17.521C39.2315 17.3893 36.5352 15.018 36.5352 11.7246Z" fill="white"/>
<path d="M59.8575 6.19165V17.2575H56.6219V12.9102H52.3078V17.2575H49.0723V6.19165H52.3078V10.4072H56.6219V6.19165H59.8575Z" fill="white"/>
<path d="M61.88 13.0419C61.3407 9.74848 63.4978 6.98201 67.1378 6.32333C70.643 5.79639 73.7437 7.77243 74.283 10.9341C74.8222 14.2275 72.6652 16.994 69.0252 17.6527C65.52 18.3113 62.4193 16.3353 61.88 13.0419ZM71.0474 11.5928C70.7778 9.74848 69.16 8.69459 67.5422 8.95806C65.9244 9.22153 64.7111 10.6706 65.1156 12.5149C65.3852 14.3593 67.003 15.4131 68.6207 15.1497C70.2385 14.8862 71.4519 13.4371 71.0474 11.5928Z" fill="#122735"/>
<path d="M80.4844 11.593L79.5407 13.0421L79.9451 15.8085L76.8444 16.2037L75.0918 5.2696L78.1925 4.74266L79.0014 9.2217L82.5066 3.95224L86.0118 3.42529L82.237 9.08996L88.034 14.3594L84.394 15.0181L80.4844 11.593Z" fill="#122735"/>
</g>
<defs>
<clipPath id="clip0">
<rect width="91" height="22" fill="white"/>
</clipPath>
</defs>
</svg>
