<svg width="164" height="53" viewBox="0 0 164 53" fill="none" xmlns="http://www.w3.org/2000/svg">
<g clip-path="url(#clip0)">
<path d="M136.994 53C151.909 53 164 41.1355 164 26.5C164 11.8645 151.909 0 136.994 0C122.079 0 109.988 11.8645 109.988 26.5C109.988 41.1355 122.079 53 136.994 53Z" fill="#009C58"/>
<path d="M18.4132 32.5226V37.0999H0V33.4862L10.3114 21.4408H0.245509V16.8635H17.9222V20.4772L7.61078 32.5226H18.4132Z" fill="#122735"/>
<path d="M40.7545 16.8635V37.0999H35.8443L26.7605 26.259V37.0999H21.1138V16.8635H26.0239L35.1078 27.7044V16.8635H40.7545Z" fill="#122735"/>
<path d="M58.6767 33.2453H50.0839L48.3654 37.0999H42.4731L51.3115 16.8635H56.9582L66.042 37.0999H59.9043L58.6767 33.2453ZM56.9582 28.909L54.2576 22.4044L51.557 28.909H56.9582Z" fill="#122735"/>
<path d="M66.5332 26.9817C66.5332 20.7181 71.4434 16.3817 77.8266 16.3817C81.5092 16.3817 84.7009 17.8272 86.6649 20.2363L82.9823 23.609C81.7547 22.1635 80.0362 21.1999 78.0721 21.1999C74.635 21.1999 72.4254 23.609 72.4254 26.9817C72.4254 30.3544 74.8805 32.7635 78.0721 32.7635C80.0362 32.7635 81.7547 32.0408 82.9823 30.3544L86.6649 33.7272C84.7009 36.1363 81.5092 37.5817 77.8266 37.5817C71.4434 37.5817 66.5332 33.2454 66.5332 26.9817Z" fill="#122735"/>
<path d="M109.006 16.8635V37.0999H103.114V29.1499H95.2575V37.0999H89.3652V16.8635H95.2575V24.5726H103.114V16.8635H109.006Z" fill="#122735"/>
<path d="M112.689 29.6318C111.707 23.609 115.635 18.5499 122.263 17.3454C128.647 16.3818 134.293 19.9954 135.275 25.7772C136.258 31.7999 132.329 36.859 125.701 38.0636C119.317 39.0272 113.671 35.6545 112.689 29.6318ZM129.383 26.7409C128.892 23.3681 125.946 21.4409 123 21.9227C120.054 22.4045 117.844 25.0545 118.581 28.4272C119.072 31.7999 122.018 33.7272 124.964 33.2454C128.156 33.0045 130.12 30.3545 129.383 26.7409Z" fill="white"/>
<path d="M146.569 26.7409L144.851 29.3909L145.587 34.4499L139.941 35.4136L136.503 15.4181L142.396 14.4545L143.869 22.6454L150.252 13.009L156.635 12.0454L149.761 22.4045L160.318 32.0409L153.689 33.2454L146.569 26.7409Z" fill="white"/>
</g>
<defs>
<clipPath id="clip0">
<rect width="164" height="53" fill="white"/>
</clipPath>
</defs>
</svg>
