<svg width="166" height="42" viewBox="0 0 166 42" fill="none" xmlns="http://www.w3.org/2000/svg">
<path d="M140.005 41.5721C155.745 39.3425 167.251 28.278 165.705 16.859C164.158 5.44003 150.144 -2.00942 134.404 0.220224C118.664 2.44987 107.158 13.5143 108.705 24.9333C110.251 36.3523 124.265 43.8018 140.005 41.5721Z" fill="#FEDA48"/>
<path d="M18.4444 28.1677V32.9461H0V29.1737L10.3289 16.5988H0.245926V11.8204H17.9526V15.5928L7.6237 28.1677H18.4444Z" fill="#122735"/>
<path d="M40.8235 11.8204V32.9461H35.905L26.8057 21.6288V32.9461H21.1494V11.8204H26.0679L35.1672 23.1377V11.8204H40.8235Z" fill="#122735"/>
<path d="M58.776 28.6706H50.1686L48.4471 32.6946H42.5449L51.6442 11.5688H57.3005L66.3997 32.6946H60.2516L58.776 28.6706ZM57.0546 24.3952L54.3494 17.6047L51.6442 24.3952H57.0546Z" fill="#122735"/>
<path d="M66.6465 22.3832C66.6465 15.8443 71.565 11.3173 77.9591 11.3173C81.648 11.3173 84.845 12.8263 86.8124 15.3413L83.1235 18.8622C81.8939 17.3532 80.1724 16.3473 78.205 16.3473C74.762 16.3473 72.5487 18.8622 72.5487 22.3832C72.5487 25.9041 75.008 28.4191 78.205 28.4191C80.1724 28.4191 81.8939 27.6646 83.1235 25.9041L86.8124 29.4251C84.845 31.9401 81.648 33.4491 77.9591 33.4491C71.565 33.1976 66.6465 28.6706 66.6465 22.3832Z" fill="#122735"/>
<path d="M109.191 11.8204V32.9461H103.288V24.6467H95.4188V32.9461H89.5166V11.8204H95.4188V19.8683H103.288V11.8204H109.191Z" fill="#122735"/>
<path d="M112.88 24.8981C111.897 18.6107 115.831 13.3293 122.471 12.0718C128.865 11.0658 134.522 14.8383 135.505 20.8742C136.489 27.1616 132.554 32.443 125.914 33.7005C119.52 34.958 113.864 31.1855 112.88 24.8981ZM129.603 22.1317C129.111 18.6107 126.16 16.5987 123.209 17.1017C120.258 17.6047 118.045 20.3712 118.783 23.8921C119.274 27.4131 122.226 29.4251 125.177 28.9221C128.128 28.4191 130.341 25.6526 129.603 22.1317Z" fill="#122735"/>
<path d="M146.818 22.1317L145.096 24.8982L145.834 30.1796L140.178 30.9341L136.98 10.0598L142.637 9.05385L144.112 17.6047L150.506 7.54487L156.9 6.53888L150.015 17.3533L160.589 27.4131L153.949 28.6706L146.818 22.1317Z" fill="#122735"/>
</svg>
