<svg width="19" height="22" viewBox="0 0 19 22" fill="none" xmlns="http://www.w3.org/2000/svg">
<path fill-rule="evenodd" clip-rule="evenodd" d="M16.0262 4.2159C15.8701 4.074 15.6865 3.96302 15.4857 3.88928C15.2849 3.81554 15.071 3.78049 14.8561 3.78614C14.6413 3.79178 14.4296 3.83801 14.2334 3.92218C14.0371 4.00635 13.86 4.12682 13.7122 4.2767C13.4138 4.57941 13.2528 4.98355 13.2647 5.40023C13.2705 5.60655 13.3187 5.80974 13.4063 5.9982C13.494 6.18665 13.6195 6.35668 13.7756 6.49858C14.5137 7.16978 15.0697 8.00422 15.3948 8.9291C15.72 9.85399 15.8046 10.8412 15.6411 11.8047C15.4777 12.7682 15.0712 13.6786 14.4571 14.4566C13.843 15.2345 13.04 15.8564 12.1182 16.268L12.2805 15.0699C12.2873 15.0188 12.2783 14.967 12.2546 14.9209C12.231 14.8748 12.1937 14.8363 12.1475 14.8104C12.102 14.7834 12.0491 14.7702 11.9956 14.7724C11.9422 14.7745 11.8907 14.792 11.8476 14.8225L9.06075 16.7383L6.1452 18.7391C6.10569 18.7655 6.0744 18.8017 6.05469 18.8438C6.03498 18.886 6.02759 18.9325 6.03332 18.9783C6.0372 19.0245 6.05396 19.0688 6.08181 19.1066C6.10967 19.1444 6.14761 19.1743 6.19165 19.1932L9.45363 20.6143L12.5742 21.9765C12.6229 21.9977 12.677 22.0048 12.7299 21.9969C12.7828 21.9889 12.8321 21.9664 12.8718 21.9319C12.9114 21.8975 12.9398 21.8526 12.9533 21.8029C12.9668 21.7532 12.9649 21.7008 12.9478 21.6521L12.2237 19.5762C13.8203 19.1182 15.2633 18.2648 16.4076 17.1016C17.552 15.9385 18.3573 14.5067 18.7426 12.95C19.128 11.3933 19.0799 9.76666 18.603 8.23352C18.1262 6.70038 17.2375 5.31475 16.0262 4.2159ZM6.97074 2.04473L6.37742 0.34774C6.36037 0.299057 6.3585 0.246654 6.37204 0.196966C6.38558 0.147278 6.41393 0.102467 6.45362 0.0680354C6.49331 0.0336038 6.54261 0.0110501 6.59546 0.00314362C6.64831 -0.00476291 6.70242 0.00232184 6.75114 0.023528L9.87166 1.38569L13.1336 2.80677C13.1778 2.82544 13.2159 2.85529 13.2438 2.89313C13.2717 2.93098 13.2883 2.97539 13.292 3.02162C13.2972 3.06745 13.2897 3.11381 13.27 3.15587C13.2503 3.19793 13.2193 3.23418 13.1801 3.26084L10.2644 5.26176L7.47742 7.17751C7.43421 7.20775 7.38256 7.22488 7.32912 7.22669C7.27568 7.22849 7.2229 7.2149 7.17758 7.18765C7.13094 7.16224 7.09344 7.12381 7.07007 7.07747C7.04669 7.03112 7.03853 6.97905 7.04668 6.92816L7.27044 5.25772C4.92897 6.12538 3.27372 8.32092 3.27372 10.8387C3.27266 11.7125 3.47163 12.5758 3.85655 13.3675C4.24147 14.1592 4.80292 14.86 5.50117 15.4203C5.83379 15.6884 6.04189 16.0723 6.0797 16.4876C6.11752 16.903 5.98194 17.3158 5.7028 17.6351C5.42366 17.9545 5.02382 18.1543 4.59124 18.1906C4.15866 18.2269 3.72878 18.0968 3.39616 17.8287C2.06894 16.76 1.07123 15.3633 0.510891 13.7896C-0.0494448 12.2158 -0.15108 10.525 0.216974 8.89976C0.585029 7.27456 1.40877 5.7769 2.59913 4.56869C3.78949 3.36048 5.30117 2.48771 6.97074 2.04473Z" fill="#4858A4"/>
</svg>
